/* XPM */
static char * mouse_xpm[] = {
"35 35 233 2",
"  	c None",
". 	c #FFFFFF",
"+ 	c #FEFEFE",
"@ 	c #FDFDFD",
"# 	c #F0F0F0",
"$ 	c #BBBBBB",
"% 	c #727272",
"& 	c #3B3B3B",
"* 	c #111111",
"= 	c #000000",
"- 	c #030303",
"; 	c #212121",
"> 	c #545454",
", 	c #A2A2A2",
"' 	c #E9E9E9",
") 	c #C0C0C0",
"! 	c #919191",
"~ 	c #616161",
"{ 	c #444444",
"] 	c #343434",
"^ 	c #2C2C2C",
"/ 	c #2E2E2E",
"( 	c #373737",
"_ 	c #4D4D4D",
": 	c #818181",
"< 	c #B9B9B9",
"[ 	c #E1E1E1",
"} 	c #FBFBFB",
"| 	c #FAFAFA",
"1 	c #B2B2B2",
"2 	c #484848",
"3 	c #232323",
"4 	c #2A2A2A",
"5 	c #515151",
"6 	c #858585",
"7 	c #989898",
"8 	c #939393",
"9 	c #646464",
"0 	c #303030",
"a 	c #262626",
"b 	c #3F3F3F",
"c 	c #979797",
"d 	c #EAEAEA",
"e 	c #F1F1F1",
"f 	c #C2C2C2",
"g 	c #707070",
"h 	c #141414",
"i 	c #191919",
"j 	c #575757",
"k 	c #909090",
"l 	c #C4C4C4",
"m 	c #DADADA",
"n 	c #D5D5D5",
"o 	c #A4A4A4",
"p 	c #121212",
"q 	c #535353",
"r 	c #A5A5A5",
"s 	c #DFDFDF",
"t 	c #D3D3D3",
"u 	c #272727",
"v 	c #1D1D1D",
"w 	c #F6F6F6",
"x 	c #F4F4F4",
"y 	c #F8F8F8",
"z 	c #F7F7F7",
"A 	c #F2F2F2",
"B 	c #D9D9D9",
"C 	c #7D7D7D",
"D 	c #171717",
"E 	c #393939",
"F 	c #A9A9A9",
"G 	c #E4E4E4",
"H 	c #949494",
"I 	c #242424",
"J 	c #1A1A1A",
"K 	c #585858",
"L 	c #AAAAAA",
"M 	c #6C6C6C",
"N 	c #1F1F1F",
"O 	c #060606",
"P 	c #6D6D6D",
"Q 	c #D6D6D6",
"R 	c #8A8A8A",
"S 	c #080808",
"T 	c #B8B8B8",
"U 	c #EDEDED",
"V 	c #D4D4D4",
"W 	c #5C5C5C",
"X 	c #333333",
"Y 	c #838383",
"Z 	c #D1D1D1",
"` 	c #B3B3B3",
" .	c #434343",
"..	c #1C1C1C",
"+.	c #313131",
"@.	c #7C7C7C",
"#.	c #E7E7E7",
"$.	c #252525",
"%.	c #3C3C3C",
"&.	c #A7A7A7",
"*.	c #C9C9C9",
"=.	c #797979",
"-.	c #0F0F0F",
";.	c #878787",
">.	c #CACACA",
",.	c #ADADAD",
"'.	c #787878",
").	c #E2E2E2",
"!.	c #969696",
"~.	c #4F4F4F",
"{.	c #BFBFBF",
"].	c #D0D0D0",
"^.	c #B0B0B0",
"/.	c #D8D8D8",
"(.	c #656565",
"_.	c #131313",
":.	c #454545",
"<.	c #DBDBDB",
"[.	c #CECECE",
"}.	c #606060",
"|.	c #7E7E7E",
"1.	c #868686",
"2.	c #9C9C9C",
"3.	c #4B4B4B",
"4.	c #1B1B1B",
"5.	c #292929",
"6.	c #EEEEEE",
"7.	c #353535",
"8.	c #7A7A7A",
"9.	c #BEBEBE",
"0.	c #F9F9F9",
"a.	c #505050",
"b.	c #9F9F9F",
"c.	c #ECECEC",
"d.	c #CCCCCC",
"e.	c #040404",
"f.	c #2D2D2D",
"g.	c #BDBDBD",
"h.	c #FCFCFC",
"i.	c #C6C6C6",
"j.	c #C7C7C7",
"k.	c #F3F3F3",
"l.	c #020202",
"m.	c #5E5E5E",
"n.	c #C3C3C3",
"o.	c #B4B4B4",
"p.	c #8F8F8F",
"q.	c #E8E8E8",
"r.	c #9D9D9D",
"s.	c #4E4E4E",
"t.	c #202020",
"u.	c #686868",
"v.	c #DDDDDD",
"w.	c #777777",
"x.	c #6E6E6E",
"y.	c #747474",
"z.	c #565656",
"A.	c #C5C5C5",
"B.	c #0D0D0D",
"C.	c #323232",
"D.	c #D7D7D7",
"E.	c #626262",
"F.	c #5B5B5B",
"G.	c #8C8C8C",
"H.	c #EFEFEF",
"I.	c #E0E0E0",
"J.	c #3D3D3D",
"K.	c #A3A3A3",
"L.	c #E3E3E3",
"M.	c #AEAEAE",
"N.	c #737373",
"O.	c #2B2B2B",
"P.	c #676767",
"Q.	c #A1A1A1",
"R.	c #3E3E3E",
"S.	c #717171",
"T.	c #A8A8A8",
"U.	c #B1B1B1",
"V.	c #959595",
"W.	c #5D5D5D",
"X.	c #181818",
"Y.	c #4C4C4C",
"Z.	c #090909",
"`.	c #494949",
" +	c #0C0C0C",
".+	c #666666",
"++	c #C1C1C1",
"@+	c #363636",
"#+	c #050505",
"$+	c #2F2F2F",
"%+	c #DCDCDC",
"&+	c #010101",
"*+	c #DEDEDE",
"=+	c #595959",
"-+	c #070707",
";+	c #CDCDCD",
">+	c #8D8D8D",
",+	c #ACACAC",
"'+	c #101010",
")+	c #E6E6E6",
"!+	c #999999",
"~+	c #F5F5F5",
"{+	c #414141",
"]+	c #CFCFCF",
"^+	c #7F7F7F",
"/+	c #383838",
"(+	c #828282",
"_+	c #696969",
":+	c #404040",
"<+	c #A0A0A0",
"[+	c #8E8E8E",
"}+	c #6B6B6B",
"|+	c #6F6F6F",
"1+	c #D2D2D2",
"2+	c #757575",
"3+	c #A6A6A6",
"4+	c #808080",
"5+	c #151515",
"6+	c #424242",
"7+	c #ABABAB",
"8+	c #E5E5E5",
"9+	c #9B9B9B",
"0+	c #BCBCBC",
"a+	c #474747",
"b+	c #3A3A3A",
"c+	c #525252",
"d+	c #9A9A9A",
"e+	c #5A5A5A",
"f+	c #282828",
"g+	c #1E1E1E",
"h+	c #767676",
"i+	c #5F5F5F",
"j+	c #0A0A0A",
". . . + @ . . . # $ % & * = - ; > , ' . . . + + . . . . . . . . . . . ",
". . . + + . . ' ) ! ~ { ] ^ / ( _ : < [ } . + + + + . . . . . . . . . ",
". . . . . . | 1 2 3 4 5 6 7 8 9 0 a b c d + . . + + . . . . . . . . . ",
"+ + + . . e f g h i j k l m n o 9 4 p q r s . . + + . . + + . . . . . ",
"+ + @ . . t ~ u v 9 t w x y z A B C u D E F . . + + . . + + . . . . . ",
". . . } G H I J K L . . . . . . . ) M N O P Q w . . + + . . + + . . . ",
". . . [ R b S b T U + . . . . . . y V W - X Y Z . . @ + . . + + . . . ",
". + w `  ...+.@.#.. . . + + + . . . . , { $.%.&.@ . . . + + . . . . + ",
". A *.=.-.N ;.>.w . + + + + . . . . . #.,.& O '.).| . . + + . . . . + ",
". ).!.~.p  .{.x + . + + . . + . z ].^.]./.(._.:.k <.. . + + + + + + . ",
"| [.}.+.%.|.#.. . + + . . . + . U 1.( ! [ 2.3.4.5.F . . . . + + + + . ",
"6.$ 7.u 8.9.0.. . @ + . . + + . w 7 a.b.c.d.R 5.e.9 ) # . . . . . . + ",
"m &.4.f.g.0.+ . + + + . . + + . h.i.2.j.k.A j.~.l.v m.n.. . . . . . + ",
"o.p.a 2 /.. . . + + . . . . . q.f r.k >.. + [.s.= = t.u.2.F $ v.z . . ",
"1.w. .x.[ . . . + . . . . . . ) y.z.}.` } z A.> = = = B.N C.W , D.y . ",
"}.E.F.G.' . . . . @ 0.H.[ I.V G.J.I f.9 K.V L.M.N.s.O.O = = D b P.p.Q.",
"R.~.S.T.6.. . . . } e V U.K.V.W.; e.= X.Y.` . . A F m.v = = = = Z./ b ",
"v %.Y ) A . . . . y L.o F.`._ { 7. += N .+++. . . ! @+3 5.:.j z.K E..+",
"#+$+k Z w . . . . w %+R O.4.$+a.(.^ &+2 , *+. . #.=+-+@+S.K.n.;+*.< U.",
"= ^ 7 m y . . . . | U l H >+7 ,+1 (.O.8./.. . D.V.$+'+S.f s 6.k.# )+[ ",
"l.$+!+m y . . + @ + . . . . . . H.b..+M.. . ~+H {+..7.M.. . . . . . . ",
"-+0 8 t w . . + + . . . . . . . k.]+T s . @ ]+K -.E ^+V . . . . . . . ",
"i /+(+{.A . . . . . . + + . . 6.<.m [ y @ D.7 $+O _+A.H.. . + + . . . ",
":+Y.m.c U . . + . . . + + . . t <+[+!+[ . r  .3 E Q.e . . . + + . . . ",
"N..+& }+[ . . + + . + . . . . *.R |+N.++' x. +@+^+t . . + + . . . . . ",
"1 G.v R.].. . . + + + . . . . q.]+1+]+T.2+4 p 2+t ~+. . + + . . . . . ",
").,.v I 3+#.} . + + + . . + @ . . . x 4+4.5+6+` . . @ + . . . . . . . ",
"w i.`.a ~.7 z . . + + . . @ @ . . s 7 @+&+_ 7+8+. . + + . . . . . . . ",
". <.4+J.h q /.. . . . . . . . . e 9+6+D ; k k.. . . . . + + . . . . . ",
". 6.0+}+-+; H /.. . . . . . . 8+3+a+O b+G.].. . + + . . + + . . . . . ",
". | ' 2.$.5+c+d+' . . . @ } d T.e+N p N.m 0.. . + + . . . . . . . . . ",
". . . [.2+7.'+a+T H.. . z i.6 %. +X =.) z . . . + + . . . . . . . . . ",
". . . H.$ x.D f+8.M.].t $ (+{+g+N P j.# . . @ + . . + + . . . . . . . ",
"+ . . + A ++h+a+/ ( 5 _ J.f.O.i+o 1+e @ . . + + . . + + . . . . . . . ",
"@ + + . . ' r j j+= h  += e.; 4+)+. . . @ + . . + + . . . . . . . . . "};
